<svg xmlns="http://www.w3.org/2000/svg" viewBox="0 0 440 72" width="440" height="72" role="img" aria-label="Donate Bitcoin to 1Be6LLAEndprdWKiH6YM62setFQRXJzfha">
  <defs>
    <filter id="glow" x="-30%" y="-60%" width="160%" height="220%"><feGaussianBlur stdDeviation="4" result="b"/><feMerge><feMergeNode in="b"/><feMergeNode in="SourceGraphic"/></feMerge></filter>
    <linearGradient id="fill" x1="0" y1="0" x2="0" y2="1"><stop offset="0%" stop-color="#0c1622"/><stop offset="100%" stop-color="#0a1119"/></linearGradient>
  </defs>
  <rect x="2" y="2" width="436" height="68" rx="34" fill="url(#fill)" stroke="#00d9d9" stroke-width="1.5"/>
  <rect x="2" y="2" width="436" height="68" rx="34" fill="none" stroke="#00d9d9" stroke-width="0.6" opacity="0.5" filter="url(#glow)"/>
  <circle cx="46" cy="36" r="17" fill="none" stroke="#00d9d9" stroke-width="1.5"/>
  <g transform="translate(46,36)" fill="none" stroke="#00d9d9" stroke-width="2.4" stroke-linecap="round" stroke-linejoin="round">
    <path d="M -4 -8 L -4 8 M -4 -8 L 3 -8 A 4 4 0 0 1 3 0 L -4 0 A 4.4 4.4 0 0 1 4 0 L -4 0 L 4 0 A 4.4 4.4 0 0 1 4 8 L -4 8"/>
    <line x1="-1" y1="-12" x2="-1" y2="-8"/><line x1="3" y1="-12" x2="3" y2="-8"/><line x1="-1" y1="8" x2="-1" y2="12"/><line x1="3" y1="8" x2="3" y2="12"/>
  </g>
  <text x="78" y="31" font-family="ui-monospace, SFMono-Regular, Menlo, Consolas, monospace" font-size="16" font-weight="800" letter-spacing="1.5" fill="#e8edf4">DONATE BITCOIN</text>
  <text x="78" y="52" font-family="ui-monospace, SFMono-Regular, Menlo, Consolas, monospace" font-size="11.5" letter-spacing="0.3" fill="#8b96a8">1Be6LLAEndprdWKiH6YM62setFQRXJzfha</text>
  <text x="410" y="41" text-anchor="middle" font-family="ui-monospace, SFMono-Regular, Menlo, Consolas, monospace" font-size="20" fill="#00d9d9">&#8594;</text>
</svg>